<svg version="1.1" xmlns="http://www.w3.org/2000/svg" xmlns:xlink="http://www.w3.org/1999/xlink" width="226.07923" height="231.38728" viewBox="0,0,226.07923,231.38728"><g transform="translate(-126.91739,-64.22428)"><g data-paper-data="{&quot;isPaintingLayer&quot;:true}" fill-rule="nonzero" stroke-linecap="butt" stroke-linejoin="miter" stroke-miterlimit="10" stroke-dasharray="" stroke-dashoffset="0" style="mix-blend-mode: normal"><path d="M209.7419,76.85375l29.81215,51.95987l31.14385,-52.02209l60.40839,-0.04936l-121.65965,206.36391l-59.94189,-0.04599l60.21182,-103.65552l-60.84768,-102.5508z" data-paper-data="{&quot;index&quot;:null}" fill="#000000" stroke="#000000" stroke-width="25"/><path d="M240.12343,128.43701l-30.43651,51.86553l-30.43651,-51.86552z" data-paper-data="{&quot;index&quot;:null}" fill="#ffa24e" stroke="#ffffff" stroke-width="0"/><path d="M209.56353,180.30253l30.43652,-51.86552l30.43652,51.86553z" fill="#ff8d46" stroke="#ffffff" stroke-width="0"/><path d="M209.7419,76.85375l-30.43651,51.86552l-30.43651,-51.86552z" data-paper-data="{&quot;index&quot;:null}" fill="#ffe866" stroke="#ffffff" stroke-width="0"/><path d="M178.9576,128.71927l30.43652,-51.86552l30.43651,51.86552z" fill="#ffc159" stroke="#ffffff" stroke-width="0"/><path d="M300.56451,128.43701l-30.43651,51.86553l-30.43652,-51.86552z" data-paper-data="{&quot;index&quot;:null}" fill="#ffa24e" stroke="#ffffff" stroke-width="0"/><path d="M331.17044,76.62935l-30.43651,51.86552l-30.43652,-51.86552z" data-paper-data="{&quot;index&quot;:null}" fill="#ffe866" stroke="#ffffff" stroke-width="0"/><path d="M240.20872,128.71927l30.43652,-51.86552l30.43651,51.86553z" data-paper-data="{&quot;index&quot;:null}" fill="#ffc159" stroke="#ffffff" stroke-width="0"/><path d="M148.8296,283.37066l30.4365,-51.86552l30.43653,51.86552z" fill="#ff2221" stroke="#ffffff" stroke-width="0"/><path d="M239.8306,231.28077l-30.43652,51.86553l-30.43651,-51.86552z" data-paper-data="{&quot;index&quot;:null}" fill="#ff3f2b" stroke="#ffffff" stroke-width="0"/><path d="M270.21214,179.6975l-30.4365,51.86553l-30.43652,-51.86553z" data-paper-data="{&quot;index&quot;:null}" fill="#ff6739" stroke="#ffffff" stroke-width="0"/><path d="M179.25041,231.56302l30.43651,-51.86553l30.43652,51.86553z" data-paper-data="{&quot;index&quot;:null}" fill="#ff6237" stroke="#ffffff" stroke-width="0"/></g></g></svg>